<svg xmlns="http://www.w3.org/2000/svg" width="22" height="22" fill="none" viewBox="0 0 22 22"><g clip-path="url(#a)"><path fill="#404040" fill-rule="evenodd" d="M7.976 5.27a1.375 1.375 0 0 1 2.381 0l3.209 5.558.827-1.432a1.375 1.375 0 0 1 2.381 0l3.97 6.875a1.376 1.376 0 0 1-1.192 2.062h-3.969v-.002l-.066.002H2.816a1.374 1.374 0 0 1-1.192-2.062zm-.834 5.112.65.433.866-.578a.92.92 0 0 1 1.017 0l.867.578.65-.433-2.025-3.507z" clip-rule="evenodd"/></g><defs><clipPath id="a"><path fill="#fff" d="M0 0h22v22H0z"/></clipPath></defs></svg>